<mxfile host="65bd71144e">
    <diagram id="IElRvYwVfIOyLVq_alX2" name="Page-1">
        <mxGraphModel dx="1659" dy="432" grid="1" gridSize="10" guides="1" tooltips="1" connect="1" arrows="1" fold="1" page="1" pageScale="1" pageWidth="827" pageHeight="1169" math="0" shadow="0">
            <root>
                <mxCell id="0"/>
                <mxCell id="1" parent="0"/>
                <mxCell id="2" value="" style="edgeStyle=orthogonalEdgeStyle;rounded=0;orthogonalLoop=1;jettySize=auto;html=1;exitX=0;exitY=0.5;exitDx=0;exitDy=0;entryX=1;entryY=0.5;entryDx=0;entryDy=0;endArrow=none;startFill=0;startArrow=ERoneToMany;fontSize=14;spacingBottom=0;spacingLeft=20;fontStyle=1" edge="1" parent="1" source="3" target="6">
                    <mxGeometry x="-0.3333" y="-10" relative="1" as="geometry">
                        <mxPoint as="offset"/>
                    </mxGeometry>
                </mxCell>
                <mxCell id="3" value="عداد" style="whiteSpace=wrap;html=1;align=center;fontFamily=Readex Pro;fontSize=12;fontStyle=0;fontSource=https%3A%2F%2Ffonts.googleapis.com%2Fcss%3Ffamily%3DReadex%2BPro;gradientDirection=south;shadow=0;glass=0;rounded=0;fillColor=#003CB3;strokeColor=#001DBC;verticalAlign=middle;fontColor=#ffffff;gradientColor=#00256E;" vertex="1" parent="1">
                    <mxGeometry x="292" y="280" width="100" height="40" as="geometry"/>
                </mxCell>
                <mxCell id="4" value="مربع" style="whiteSpace=wrap;html=1;align=center;fontFamily=Readex Pro;fontSize=12;fontStyle=0;fontSource=https%3A%2F%2Ffonts.googleapis.com%2Fcss%3Ffamily%3DReadex%2BPro;gradientDirection=south;shadow=0;glass=0;rounded=0;fillColor=#003CB3;strokeColor=#001DBC;verticalAlign=middle;fontColor=#ffffff;gradientColor=#00256E;" vertex="1" parent="1">
                    <mxGeometry x="-118" y="280" width="100" height="40" as="geometry"/>
                </mxCell>
                <mxCell id="5" value="" style="edgeStyle=orthogonalEdgeStyle;rounded=0;orthogonalLoop=1;jettySize=auto;html=1;entryX=1;entryY=0.5;entryDx=0;entryDy=0;endArrow=ERone;endFill=0;fontStyle=1;fontSize=14;spacingRight=20;" edge="1" parent="1" source="6" target="4">
                    <mxGeometry x="0.4" y="-10" relative="1" as="geometry">
                        <mxPoint as="offset"/>
                    </mxGeometry>
                </mxCell>
                <mxCell id="6" value="يتبع" style="shape=rhombus;perimeter=rhombusPerimeter;whiteSpace=wrap;html=1;align=center;fontSize=14;fontFamily=Times New Roman;fontStyle=1" vertex="1" parent="1">
                    <mxGeometry x="82" y="270" width="120" height="60" as="geometry"/>
                </mxCell>
                <mxCell id="7" value="حالة عداد" style="whiteSpace=wrap;html=1;align=center;fontFamily=Readex Pro;fontSize=12;fontStyle=0;fontSource=https%3A%2F%2Ffonts.googleapis.com%2Fcss%3Ffamily%3DReadex%2BPro;gradientDirection=south;shadow=0;glass=0;rounded=0;fillColor=#003CB3;strokeColor=#001DBC;verticalAlign=middle;fontColor=#ffffff;gradientColor=#00256E;" vertex="1" parent="1">
                    <mxGeometry x="292" y="50" width="100" height="40" as="geometry"/>
                </mxCell>
                <mxCell id="8" style="edgeStyle=none;html=1;exitX=0.5;exitY=0;exitDx=0;exitDy=0;entryX=0.5;entryY=1;entryDx=0;entryDy=0;endArrow=ERone;endFill=0;" edge="1" parent="1" source="10" target="7">
                    <mxGeometry relative="1" as="geometry"/>
                </mxCell>
                <mxCell id="9" style="edgeStyle=none;html=1;exitX=0.5;exitY=1;exitDx=0;exitDy=0;entryX=0.5;entryY=0;entryDx=0;entryDy=0;endArrow=ERoneToMany;endFill=0;" edge="1" parent="1" source="10" target="3">
                    <mxGeometry relative="1" as="geometry"/>
                </mxCell>
                <mxCell id="10" value="تحدد" style="shape=rhombus;perimeter=rhombusPerimeter;whiteSpace=wrap;html=1;align=center;fontSize=14;fontFamily=Times New Roman;fontStyle=1" vertex="1" parent="1">
                    <mxGeometry x="282" y="150" width="120" height="60" as="geometry"/>
                </mxCell>
                <mxCell id="11" value="" style="edgeStyle=orthogonalEdgeStyle;rounded=0;orthogonalLoop=1;jettySize=auto;html=1;exitX=0.5;exitY=0;exitDx=0;exitDy=0;entryX=0.5;entryY=1;entryDx=0;entryDy=0;endArrow=none;startFill=0;startArrow=ERoneToMany;fontSize=14;spacingBottom=0;spacingLeft=20;fontStyle=1" edge="1" parent="1" source="12" target="14">
                    <mxGeometry x="-0.3333" y="-10" relative="1" as="geometry">
                        <mxPoint as="offset"/>
                    </mxGeometry>
                </mxCell>
                <mxCell id="12" value="قراءات العداد" style="whiteSpace=wrap;html=1;align=center;fontFamily=Readex Pro;fontSize=12;fontStyle=0;fontSource=https%3A%2F%2Ffonts.googleapis.com%2Fcss%3Ffamily%3DReadex%2BPro;gradientDirection=south;shadow=0;glass=0;rounded=0;fillColor=#003CB3;strokeColor=#001DBC;verticalAlign=middle;fontColor=#ffffff;gradientColor=#00256E;" vertex="1" parent="1">
                    <mxGeometry x="292" y="565" width="100" height="40" as="geometry"/>
                </mxCell>
                <mxCell id="13" style="edgeStyle=none;html=1;exitX=0.5;exitY=0;exitDx=0;exitDy=0;entryX=0.5;entryY=1;entryDx=0;entryDy=0;endArrow=ERone;endFill=0;" edge="1" parent="1" source="14" target="3">
                    <mxGeometry relative="1" as="geometry"/>
                </mxCell>
                <mxCell id="14" value="تسجل" style="shape=rhombus;perimeter=rhombusPerimeter;whiteSpace=wrap;html=1;align=center;fontSize=14;fontFamily=Times New Roman;fontStyle=1" vertex="1" parent="1">
                    <mxGeometry x="282" y="420" width="120" height="60" as="geometry"/>
                </mxCell>
                <mxCell id="15" value="" style="edgeStyle=orthogonalEdgeStyle;rounded=0;orthogonalLoop=1;jettySize=auto;html=1;exitX=0.5;exitY=1;exitDx=0;exitDy=0;entryX=0.5;entryY=0;entryDx=0;entryDy=0;endArrow=none;startFill=0;startArrow=ERone;fontSize=14;spacingBottom=0;spacingLeft=20;fontStyle=1" edge="1" parent="1" source="16" target="18">
                    <mxGeometry x="-0.3333" y="-10" relative="1" as="geometry">
                        <mxPoint as="offset"/>
                    </mxGeometry>
                </mxCell>
                <mxCell id="16" value="نوع الاشتراك" style="whiteSpace=wrap;html=1;align=center;fontFamily=Readex Pro;fontSize=12;fontStyle=0;fontSource=https%3A%2F%2Ffonts.googleapis.com%2Fcss%3Ffamily%3DReadex%2BPro;gradientDirection=south;shadow=0;glass=0;rounded=0;fillColor=#003CB3;strokeColor=#001DBC;verticalAlign=middle;fontColor=#ffffff;gradientColor=#00256E;" vertex="1" parent="1">
                    <mxGeometry x="142" y="50" width="100" height="40" as="geometry"/>
                </mxCell>
                <mxCell id="17" style="edgeStyle=none;html=1;exitX=1;exitY=1;exitDx=0;exitDy=0;entryX=0;entryY=0;entryDx=0;entryDy=0;endArrow=ERoneToMany;endFill=0;" edge="1" parent="1" source="18" target="3">
                    <mxGeometry relative="1" as="geometry"/>
                </mxCell>
                <mxCell id="18" value="يعرف" style="shape=rhombus;perimeter=rhombusPerimeter;whiteSpace=wrap;html=1;align=center;fontSize=14;fontFamily=Times New Roman;fontStyle=1" vertex="1" parent="1">
                    <mxGeometry x="132" y="150" width="120" height="60" as="geometry"/>
                </mxCell>
                <mxCell id="19" value="" style="edgeStyle=orthogonalEdgeStyle;rounded=0;orthogonalLoop=1;jettySize=auto;html=1;exitX=0;exitY=0.5;exitDx=0;exitDy=0;entryX=1;entryY=0.5;entryDx=0;entryDy=0;endArrow=none;startFill=0;startArrow=ERone;fontSize=14;spacingBottom=0;spacingLeft=20;fontStyle=1" edge="1" parent="1" source="20" target="22">
                    <mxGeometry x="-0.3333" y="-10" relative="1" as="geometry">
                        <mxPoint as="offset"/>
                    </mxGeometry>
                </mxCell>
                <mxCell id="20" value="المشترك" style="whiteSpace=wrap;html=1;align=center;fontFamily=Readex Pro;fontSize=12;fontStyle=0;fontSource=https%3A%2F%2Ffonts.googleapis.com%2Fcss%3Ffamily%3DReadex%2BPro;gradientDirection=south;shadow=0;glass=0;rounded=0;fillColor=#003CB3;strokeColor=#001DBC;verticalAlign=middle;fontColor=#ffffff;gradientColor=#00256E;" vertex="1" parent="1">
                    <mxGeometry x="710" y="280" width="100" height="40" as="geometry"/>
                </mxCell>
                <mxCell id="21" style="edgeStyle=none;html=1;exitX=0;exitY=0.5;exitDx=0;exitDy=0;entryX=1;entryY=0.5;entryDx=0;entryDy=0;endArrow=ERoneToMany;endFill=0;" edge="1" parent="1" source="22" target="3">
                    <mxGeometry relative="1" as="geometry"/>
                </mxCell>
                <mxCell id="22" value="يملك" style="shape=rhombus;perimeter=rhombusPerimeter;whiteSpace=wrap;html=1;align=center;fontSize=14;fontFamily=Times New Roman;fontStyle=1" vertex="1" parent="1">
                    <mxGeometry x="492" y="270" width="120" height="60" as="geometry"/>
                </mxCell>
                <mxCell id="23" value="" style="edgeStyle=orthogonalEdgeStyle;rounded=0;orthogonalLoop=1;jettySize=auto;html=1;exitX=0;exitY=0.5;exitDx=0;exitDy=0;entryX=1;entryY=0.5;entryDx=0;entryDy=0;endArrow=none;startFill=0;startArrow=ERone;fontSize=14;spacingBottom=0;spacingLeft=20;fontStyle=1" edge="1" parent="1" source="24" target="26">
                    <mxGeometry x="-0.3333" y="-10" relative="1" as="geometry">
                        <mxPoint as="offset"/>
                    </mxGeometry>
                </mxCell>
                <mxCell id="24" value="الفاتورة" style="whiteSpace=wrap;html=1;align=center;fontFamily=Readex Pro;fontSize=12;fontStyle=0;fontSource=https%3A%2F%2Ffonts.googleapis.com%2Fcss%3Ffamily%3DReadex%2BPro;gradientDirection=south;shadow=0;glass=0;rounded=0;fillColor=#003CB3;strokeColor=#001DBC;verticalAlign=middle;fontColor=#ffffff;gradientColor=#00256E;" vertex="1" parent="1">
                    <mxGeometry x="702" y="150" width="100" height="40" as="geometry"/>
                </mxCell>
                <mxCell id="25" value="" style="rounded=0;orthogonalLoop=1;jettySize=auto;html=1;entryX=1;entryY=0;entryDx=0;entryDy=0;endArrow=ERoneToMany;endFill=0;fontStyle=1;fontSize=14;spacingRight=20;" edge="1" parent="1" source="26" target="3">
                    <mxGeometry x="0.4" y="-10" relative="1" as="geometry">
                        <mxPoint as="offset"/>
                        <mxPoint x="392" y="170" as="targetPoint"/>
                    </mxGeometry>
                </mxCell>
                <mxCell id="26" value="ترتبط ب" style="shape=rhombus;perimeter=rhombusPerimeter;whiteSpace=wrap;html=1;align=center;fontSize=14;fontFamily=Times New Roman;fontStyle=1" vertex="1" parent="1">
                    <mxGeometry x="492" y="140" width="120" height="60" as="geometry"/>
                </mxCell>
            </root>
        </mxGraphModel>
    </diagram>
</mxfile>